# xmcd CD database file
#
# Track frame offsets:
#	150
#	16201
#	34262
#	52387
#	67094
#	82474
#	99352
#	116995
#	132197
#	147050
#	159951
#	177964
#	196326
#	209976
#	221009
#	237591
#	255557
#	271317
#	284090
#	301434
#
# Disc length: 4225 seconds
#
# Revision: 0
# Processed by: cddbd v1.5.2PL0 Copyright (c) Steve Scherf et al.
# Submitted via: CDex 1.51
#
DISCID=45107f14
DTITLE=The Real Book Play-Along - Volume II
DYEAR=2010
DGENRE=Jazz
TTITLE0=One Morning In May
TTITLE1=Our Language Of Love
TTITLE2=Oye Como Va
TTITLE3=Parisian Thoroughfare
TTITLE4=Pennies From Heaven
TTITLE5=People Will Say We're In Love
TTITLE6=Perdido
TTITLE7=Petits Machins
TTITLE8=Phase Dance
TTITLE9=Pick Yourself Up
TTITLE10=Polka Dots And Moonbeams
TTITLE11=Prisoner Of Love
TTITLE12=Pursuance (Part III)
TTITLE13=Ran Kan Kan
TTITLE14=Red Cross
TTITLE15=Right As Rain
TTITLE16=Rockin' In Rhythm
TTITLE17=Rosetta
TTITLE18=Round Trip
TTITLE19=Route 66
EXTD=YEAR: 2010
EXTT0=
EXTT1=
EXTT2=
EXTT3=
EXTT4=
EXTT5=
EXTT6=
EXTT7=
EXTT8=
EXTT9=
EXTT10=
EXTT11=
EXTT12=
EXTT13=
EXTT14=
EXTT15=
EXTT16=
EXTT17=
EXTT18=
EXTT19=
PLAYORDER=
